<svg width="780" height="676" viewBox="0 0 780 676" fill="none" xmlns="http://www.w3.org/2000/svg">
<rect width="780" height="676" fill="black"/>
<rect x="163" y="98" width="545" height="519" fill="black"/>
<circle cx="248.5" cy="347.5" r="17.5" fill="#D9D9D9"/>
<circle cx="248.5" cy="220.5" r="17.5" fill="white"/>
<circle cx="248.5" cy="220.5" r="11" fill="white" stroke="black" stroke-width="3"/>
<circle cx="248.5" cy="479.5" r="17.5" fill="#D9D9D9"/>
<line x1="248.5" y1="252" x2="248.5" y2="316" stroke="#D9D9D9"/>
<line x1="248.5" y1="382" x2="248.5" y2="446" stroke="#D9D9D9"/>
<path d="M292.721 208.545H298.749L304.553 219.508H304.802L310.606 208.545H316.634L307.35 225.001V234H302.005V225.001L292.721 208.545ZM324.101 234.373C322.17 234.373 320.501 233.963 319.092 233.142C317.692 232.314 316.61 231.162 315.848 229.687C315.086 228.204 314.705 226.485 314.705 224.529C314.705 222.557 315.086 220.834 315.848 219.359C316.61 217.875 317.692 216.724 319.092 215.903C320.501 215.075 322.17 214.661 324.101 214.661C326.032 214.661 327.697 215.075 329.097 215.903C330.506 216.724 331.591 217.875 332.354 219.359C333.116 220.834 333.497 222.557 333.497 224.529C333.497 226.485 333.116 228.204 332.354 229.687C331.591 231.162 330.506 232.314 329.097 233.142C327.697 233.963 326.032 234.373 324.101 234.373ZM324.126 230.271C325.004 230.271 325.737 230.023 326.326 229.526C326.914 229.02 327.357 228.332 327.656 227.462C327.962 226.592 328.116 225.602 328.116 224.492C328.116 223.382 327.962 222.391 327.656 221.521C327.357 220.651 326.914 219.964 326.326 219.458C325.737 218.953 325.004 218.7 324.126 218.7C323.239 218.7 322.493 218.953 321.889 219.458C321.292 219.964 320.84 220.651 320.534 221.521C320.236 222.391 320.086 223.382 320.086 224.492C320.086 225.602 320.236 226.592 320.534 227.462C320.84 228.332 321.292 229.02 321.889 229.526C322.493 230.023 323.239 230.271 324.126 230.271ZM349.183 225.871V214.909H354.477V234H349.394V230.532H349.195C348.764 231.651 348.047 232.55 347.045 233.229C346.051 233.909 344.837 234.249 343.403 234.249C342.127 234.249 341.004 233.959 340.035 233.379C339.065 232.799 338.307 231.974 337.76 230.905C337.222 229.836 336.948 228.556 336.94 227.065V214.909H342.235V226.12C342.243 227.247 342.546 228.138 343.142 228.792C343.739 229.447 344.538 229.774 345.541 229.774C346.179 229.774 346.776 229.629 347.331 229.339C347.886 229.041 348.333 228.602 348.673 228.022C349.021 227.442 349.191 226.725 349.183 225.871ZM358.713 234V214.909H363.846V218.24H364.045C364.393 217.055 364.977 216.16 365.797 215.555C366.617 214.942 367.562 214.636 368.631 214.636C368.896 214.636 369.182 214.652 369.488 214.685C369.795 214.719 370.064 214.764 370.296 214.822V219.52C370.048 219.446 369.704 219.379 369.265 219.321C368.826 219.263 368.424 219.234 368.059 219.234C367.28 219.234 366.584 219.404 365.971 219.744C365.366 220.075 364.886 220.539 364.529 221.136C364.181 221.733 364.007 222.42 364.007 223.199V234H358.713ZM390.257 234H381.234V208.545H390.332C392.892 208.545 395.096 209.055 396.944 210.074C398.792 211.085 400.213 212.539 401.207 214.437C402.21 216.334 402.711 218.605 402.711 221.248C402.711 223.899 402.21 226.178 401.207 228.084C400.213 229.99 398.784 231.452 396.919 232.471C395.063 233.49 392.843 234 390.257 234ZM386.616 229.389H390.034C391.624 229.389 392.963 229.107 394.048 228.544C395.142 227.972 395.962 227.089 396.509 225.896C397.064 224.695 397.342 223.145 397.342 221.248C397.342 219.367 397.064 217.83 396.509 216.637C395.962 215.444 395.146 214.565 394.061 214.002C392.975 213.438 391.637 213.157 390.046 213.157H386.616V229.389ZM415.299 234.373C413.335 234.373 411.644 233.975 410.228 233.18C408.819 232.376 407.733 231.241 406.971 229.774C406.209 228.299 405.828 226.555 405.828 224.542C405.828 222.578 406.209 220.854 406.971 219.371C407.733 217.888 408.806 216.732 410.19 215.903C411.582 215.075 413.215 214.661 415.087 214.661C416.347 214.661 417.519 214.864 418.605 215.27C419.698 215.667 420.651 216.268 421.463 217.072C422.284 217.875 422.922 218.886 423.377 220.104C423.833 221.314 424.061 222.731 424.061 224.355V225.809H407.941V222.528H419.077C419.077 221.766 418.911 221.09 418.58 220.502C418.248 219.914 417.789 219.454 417.2 219.123C416.62 218.783 415.945 218.613 415.174 218.613C414.371 218.613 413.658 218.799 413.036 219.172C412.423 219.537 411.943 220.03 411.595 220.651C411.247 221.264 411.069 221.948 411.06 222.702V225.822C411.06 226.766 411.234 227.583 411.582 228.27C411.939 228.958 412.44 229.488 413.086 229.861C413.733 230.234 414.499 230.42 415.386 230.42C415.974 230.42 416.512 230.338 417.001 230.172C417.49 230.006 417.909 229.758 418.257 229.426C418.605 229.095 418.87 228.689 419.052 228.208L423.949 228.531C423.701 229.708 423.191 230.735 422.42 231.614C421.658 232.484 420.672 233.163 419.462 233.652C418.261 234.133 416.873 234.373 415.299 234.373ZM437.671 214.909V218.886H426.174V214.909H437.671ZM428.784 210.335H434.079V228.134C434.079 228.622 434.153 229.004 434.302 229.277C434.452 229.542 434.659 229.729 434.924 229.836C435.197 229.944 435.512 229.998 435.869 229.998C436.117 229.998 436.366 229.977 436.614 229.936C436.863 229.886 437.053 229.849 437.186 229.824L438.019 233.764C437.754 233.847 437.381 233.942 436.9 234.05C436.42 234.166 435.835 234.236 435.148 234.261C433.872 234.311 432.753 234.141 431.792 233.751C430.839 233.362 430.097 232.757 429.567 231.937C429.037 231.116 428.776 230.081 428.784 228.83V210.335ZM446.564 234.36C445.346 234.36 444.26 234.149 443.307 233.727C442.354 233.296 441.6 232.662 441.045 231.825C440.498 230.98 440.225 229.927 440.225 228.668C440.225 227.607 440.42 226.717 440.809 225.996C441.198 225.275 441.729 224.695 442.4 224.256C443.071 223.817 443.833 223.485 444.687 223.261C445.549 223.038 446.452 222.88 447.396 222.789C448.507 222.673 449.402 222.565 450.081 222.466C450.761 222.358 451.254 222.201 451.56 221.994C451.867 221.786 452.02 221.48 452.02 221.074V220.999C452.02 220.212 451.771 219.603 451.274 219.172C450.785 218.741 450.089 218.526 449.186 218.526C448.233 218.526 447.475 218.737 446.912 219.16C446.348 219.574 445.975 220.096 445.793 220.726L440.896 220.328C441.145 219.168 441.633 218.165 442.363 217.32C443.092 216.467 444.032 215.812 445.184 215.357C446.344 214.893 447.686 214.661 449.211 214.661C450.272 214.661 451.287 214.785 452.256 215.033C453.234 215.282 454.1 215.667 454.854 216.189C455.616 216.711 456.217 217.382 456.656 218.203C457.095 219.015 457.315 219.988 457.315 221.124V234H452.293V231.353H452.144C451.838 231.949 451.428 232.475 450.914 232.931C450.4 233.379 449.783 233.731 449.062 233.988C448.341 234.236 447.508 234.36 446.564 234.36ZM448.08 230.706C448.859 230.706 449.547 230.553 450.143 230.246C450.74 229.932 451.208 229.509 451.548 228.979C451.887 228.448 452.057 227.848 452.057 227.176V225.151C451.892 225.258 451.664 225.358 451.374 225.449C451.092 225.532 450.773 225.61 450.417 225.685C450.06 225.751 449.704 225.813 449.348 225.871C448.991 225.921 448.668 225.967 448.378 226.008C447.757 226.099 447.214 226.244 446.75 226.443C446.286 226.642 445.926 226.911 445.669 227.251C445.412 227.583 445.283 227.997 445.283 228.494C445.283 229.215 445.544 229.766 446.066 230.147C446.597 230.52 447.268 230.706 448.08 230.706ZM461.422 234V214.909H466.717V234H461.422ZM464.082 212.448C463.295 212.448 462.62 212.187 462.056 211.665C461.501 211.135 461.224 210.501 461.224 209.763C461.224 209.034 461.501 208.409 462.056 207.887C462.62 207.356 463.295 207.091 464.082 207.091C464.869 207.091 465.541 207.356 466.096 207.887C466.659 208.409 466.941 209.034 466.941 209.763C466.941 210.501 466.659 211.135 466.096 211.665C465.541 212.187 464.869 212.448 464.082 212.448ZM476.253 208.545V234H470.959V208.545H476.253ZM496.379 220.353L491.532 220.651C491.449 220.237 491.271 219.864 490.997 219.533C490.724 219.193 490.363 218.924 489.916 218.725C489.477 218.518 488.951 218.414 488.337 218.414C487.517 218.414 486.825 218.588 486.262 218.936C485.698 219.276 485.417 219.732 485.417 220.303C485.417 220.759 485.599 221.144 485.964 221.459C486.328 221.774 486.954 222.027 487.84 222.217L491.296 222.913C493.152 223.295 494.535 223.908 495.447 224.753C496.358 225.598 496.814 226.708 496.814 228.084C496.814 229.335 496.445 230.433 495.708 231.377C494.979 232.322 493.976 233.06 492.7 233.59C491.432 234.112 489.97 234.373 488.313 234.373C485.785 234.373 483.772 233.847 482.272 232.794C480.781 231.734 479.906 230.292 479.65 228.469L484.857 228.196C485.015 228.966 485.396 229.555 486.001 229.961C486.606 230.358 487.38 230.557 488.325 230.557C489.253 230.557 489.999 230.379 490.562 230.023C491.134 229.658 491.424 229.19 491.432 228.618C491.424 228.138 491.221 227.744 490.823 227.438C490.426 227.123 489.812 226.882 488.984 226.717L485.678 226.058C483.813 225.685 482.425 225.039 481.514 224.119C480.611 223.199 480.159 222.027 480.159 220.602C480.159 219.375 480.491 218.319 481.153 217.432C481.825 216.546 482.765 215.862 483.975 215.381C485.193 214.901 486.618 214.661 488.25 214.661C490.662 214.661 492.559 215.17 493.943 216.189C495.335 217.208 496.147 218.596 496.379 220.353Z" fill="white"/>
<path d="M295.082 335.545H298.761L307.412 356.675H307.71L316.361 335.545H320.04V361H317.156V341.661H316.908L308.953 361H306.169L298.214 341.661H297.966V361H295.082V335.545ZM333.578 361.398C331.855 361.398 330.342 360.988 329.041 360.167C327.749 359.347 326.738 358.199 326.009 356.724C325.288 355.25 324.927 353.526 324.927 351.554C324.927 349.565 325.288 347.829 326.009 346.346C326.738 344.863 327.749 343.711 329.041 342.891C330.342 342.071 331.855 341.661 333.578 341.661C335.302 341.661 336.81 342.071 338.102 342.891C339.403 343.711 340.414 344.863 341.135 346.346C341.864 347.829 342.229 349.565 342.229 351.554C342.229 353.526 341.864 355.25 341.135 356.724C340.414 358.199 339.403 359.347 338.102 360.167C336.81 360.988 335.302 361.398 333.578 361.398ZM333.578 358.763C334.887 358.763 335.964 358.427 336.81 357.756C337.655 357.085 338.28 356.202 338.686 355.109C339.092 354.015 339.295 352.83 339.295 351.554C339.295 350.278 339.092 349.089 338.686 347.987C338.28 346.885 337.655 345.994 336.81 345.315C335.964 344.635 334.887 344.295 333.578 344.295C332.269 344.295 331.192 344.635 330.347 345.315C329.501 345.994 328.876 346.885 328.47 347.987C328.064 349.089 327.861 350.278 327.861 351.554C327.861 352.83 328.064 354.015 328.47 355.109C328.876 356.202 329.501 357.085 330.347 357.756C331.192 358.427 332.269 358.763 333.578 358.763ZM353.915 361.398C352.324 361.398 350.92 360.996 349.702 360.192C348.483 359.38 347.531 358.237 346.843 356.762C346.155 355.279 345.811 353.526 345.811 351.504C345.811 349.499 346.155 347.759 346.843 346.284C347.531 344.809 348.488 343.67 349.714 342.866C350.94 342.062 352.357 341.661 353.965 341.661C355.208 341.661 356.189 341.868 356.91 342.282C357.64 342.688 358.195 343.152 358.576 343.674C358.965 344.188 359.268 344.61 359.483 344.942H359.732V335.545H362.665V361H359.831V358.067H359.483C359.268 358.415 358.961 358.854 358.563 359.384C358.166 359.906 357.598 360.374 356.861 360.789C356.123 361.195 355.141 361.398 353.915 361.398ZM354.313 358.763C355.489 358.763 356.484 358.456 357.296 357.843C358.108 357.222 358.725 356.364 359.148 355.27C359.57 354.168 359.781 352.896 359.781 351.455C359.781 350.029 359.574 348.782 359.16 347.713C358.746 346.636 358.133 345.799 357.32 345.203C356.508 344.598 355.506 344.295 354.313 344.295C353.07 344.295 352.034 344.614 351.205 345.252C350.385 345.882 349.768 346.74 349.354 347.825C348.948 348.902 348.744 350.112 348.744 351.455C348.744 352.813 348.952 354.048 349.366 355.158C349.789 356.26 350.41 357.139 351.23 357.793C352.059 358.44 353.086 358.763 354.313 358.763ZM376.449 361.398C374.609 361.398 373.022 360.992 371.688 360.18C370.363 359.359 369.339 358.216 368.618 356.749C367.906 355.274 367.55 353.559 367.55 351.604C367.55 349.648 367.906 347.925 368.618 346.433C369.339 344.933 370.342 343.765 371.626 342.928C372.919 342.083 374.427 341.661 376.15 341.661C377.145 341.661 378.127 341.826 379.096 342.158C380.066 342.489 380.948 343.028 381.743 343.773C382.539 344.511 383.173 345.489 383.645 346.707C384.117 347.925 384.354 349.424 384.354 351.206V352.449H369.638V349.913H381.371C381.371 348.836 381.155 347.875 380.724 347.03C380.302 346.185 379.697 345.518 378.91 345.029C378.131 344.54 377.211 344.295 376.15 344.295C374.982 344.295 373.971 344.585 373.118 345.165C372.273 345.737 371.622 346.483 371.166 347.403C370.711 348.322 370.483 349.308 370.483 350.361V352.051C370.483 353.493 370.731 354.715 371.229 355.718C371.734 356.712 372.434 357.47 373.329 357.992C374.224 358.506 375.264 358.763 376.449 358.763C377.219 358.763 377.915 358.655 378.537 358.44C379.166 358.216 379.709 357.884 380.165 357.445C380.621 356.998 380.973 356.443 381.221 355.78L384.055 356.575C383.757 357.536 383.256 358.382 382.551 359.111C381.847 359.832 380.977 360.395 379.941 360.801C378.905 361.199 377.741 361.398 376.449 361.398ZM391.749 335.545V361H388.816V335.545H391.749ZM414.174 361.348C412.5 361.348 411.058 361.041 409.848 360.428C408.639 359.815 407.707 358.974 407.052 357.905C406.397 356.836 406.07 355.614 406.07 354.239C406.07 353.178 406.294 352.238 406.741 351.417C407.197 350.589 407.823 349.822 408.618 349.118C409.422 348.405 410.346 347.693 411.39 346.98L415.069 344.246C415.79 343.773 416.365 343.268 416.796 342.729C417.235 342.191 417.455 341.487 417.455 340.616C417.455 339.97 417.169 339.345 416.597 338.74C416.034 338.135 415.292 337.832 414.373 337.832C413.726 337.832 413.155 337.998 412.657 338.33C412.169 338.653 411.783 339.067 411.502 339.572C411.228 340.07 411.091 340.583 411.091 341.114C411.091 341.71 411.253 342.315 411.576 342.928C411.908 343.533 412.326 344.155 412.831 344.793C413.345 345.422 413.875 346.069 414.422 346.732L426.106 361H422.576L412.931 349.366C412.036 348.289 411.224 347.312 410.495 346.433C409.766 345.555 409.186 344.689 408.755 343.836C408.324 342.982 408.108 342.058 408.108 341.064C408.108 339.92 408.361 338.918 408.867 338.056C409.38 337.186 410.097 336.511 411.017 336.03C411.945 335.541 413.03 335.297 414.273 335.297C415.549 335.297 416.647 335.545 417.567 336.043C418.487 336.531 419.195 337.182 419.692 337.994C420.189 338.798 420.438 339.672 420.438 340.616C420.438 341.835 420.136 342.891 419.531 343.786C418.926 344.681 418.101 345.513 417.057 346.284L411.986 350.062C410.843 350.908 410.068 351.728 409.662 352.523C409.256 353.319 409.053 353.891 409.053 354.239C409.053 355.034 409.26 355.776 409.674 356.463C410.089 357.151 410.673 357.706 411.427 358.129C412.181 358.551 413.063 358.763 414.074 358.763C415.035 358.763 415.972 358.56 416.883 358.154C417.795 357.739 418.619 357.143 419.357 356.364C420.102 355.585 420.691 354.649 421.122 353.555C421.561 352.461 421.78 351.231 421.78 349.864H424.614C424.614 351.554 424.419 352.934 424.03 354.002C423.64 355.071 423.201 355.908 422.712 356.513C422.224 357.118 421.83 357.57 421.532 357.868C421.432 357.992 421.341 358.116 421.258 358.241C421.175 358.365 421.084 358.489 420.985 358.614C420.165 359.533 419.129 360.221 417.878 360.677C416.626 361.124 415.392 361.348 414.174 361.348ZM447.449 361H439.594V335.545H447.797C450.266 335.545 452.379 336.055 454.136 337.074C455.893 338.085 457.239 339.539 458.175 341.437C459.112 343.326 459.58 345.588 459.58 348.223C459.58 350.875 459.108 353.157 458.163 355.071C457.218 356.977 455.843 358.444 454.037 359.471C452.23 360.49 450.034 361 447.449 361ZM442.676 358.266H447.25C449.355 358.266 451.099 357.86 452.483 357.048C453.867 356.236 454.898 355.08 455.578 353.58C456.257 352.08 456.597 350.295 456.597 348.223C456.597 346.168 456.261 344.399 455.59 342.916C454.919 341.424 453.916 340.281 452.582 339.485C451.248 338.682 449.587 338.28 447.598 338.28H442.676V358.266ZM472.357 361.398C470.517 361.398 468.931 360.992 467.597 360.18C466.271 359.359 465.248 358.216 464.527 356.749C463.814 355.274 463.458 353.559 463.458 351.604C463.458 349.648 463.814 347.925 464.527 346.433C465.248 344.933 466.25 343.765 467.534 342.928C468.827 342.083 470.335 341.661 472.059 341.661C473.053 341.661 474.035 341.826 475.004 342.158C475.974 342.489 476.856 343.028 477.652 343.773C478.447 344.511 479.081 345.489 479.553 346.707C480.026 347.925 480.262 349.424 480.262 351.206V352.449H465.546V349.913H477.279C477.279 348.836 477.063 347.875 476.632 347.03C476.21 346.185 475.605 345.518 474.818 345.029C474.039 344.54 473.119 344.295 472.059 344.295C470.89 344.295 469.879 344.585 469.026 345.165C468.181 345.737 467.53 346.483 467.075 347.403C466.619 348.322 466.391 349.308 466.391 350.361V352.051C466.391 353.493 466.64 354.715 467.137 355.718C467.642 356.712 468.342 357.47 469.237 357.992C470.132 358.506 471.172 358.763 472.357 358.763C473.127 358.763 473.824 358.655 474.445 358.44C475.075 358.216 475.617 357.884 476.073 357.445C476.529 356.998 476.881 356.443 477.13 355.78L479.963 356.575C479.665 357.536 479.164 358.382 478.46 359.111C477.755 359.832 476.885 360.395 475.849 360.801C474.814 361.199 473.65 361.398 472.357 361.398ZM490.342 361.447C489.132 361.447 488.034 361.22 487.048 360.764C486.062 360.3 485.279 359.633 484.699 358.763C484.119 357.884 483.829 356.824 483.829 355.581C483.829 354.487 484.044 353.601 484.475 352.921C484.906 352.233 485.482 351.695 486.203 351.305C486.924 350.916 487.719 350.626 488.589 350.435C489.467 350.237 490.35 350.079 491.237 349.963C492.397 349.814 493.337 349.702 494.058 349.627C494.787 349.545 495.317 349.408 495.649 349.217C495.989 349.027 496.158 348.695 496.158 348.223V348.124C496.158 346.897 495.823 345.944 495.152 345.265C494.489 344.585 493.482 344.246 492.131 344.246C490.731 344.246 489.633 344.552 488.838 345.165C488.042 345.779 487.483 346.433 487.16 347.129L484.376 346.135C484.873 344.975 485.536 344.072 486.364 343.425C487.201 342.771 488.113 342.315 489.099 342.058C490.093 341.793 491.071 341.661 492.032 341.661C492.645 341.661 493.349 341.735 494.145 341.884C494.949 342.025 495.723 342.319 496.469 342.767C497.223 343.214 497.849 343.889 498.346 344.793C498.843 345.696 499.092 346.906 499.092 348.422V361H496.158V358.415H496.009C495.81 358.829 495.479 359.272 495.015 359.745C494.551 360.217 493.934 360.619 493.163 360.95C492.392 361.282 491.452 361.447 490.342 361.447ZM490.789 358.812C491.949 358.812 492.927 358.585 493.722 358.129C494.526 357.673 495.131 357.085 495.537 356.364C495.951 355.643 496.158 354.885 496.158 354.089V351.405C496.034 351.554 495.761 351.691 495.338 351.815C494.924 351.931 494.443 352.035 493.896 352.126C493.358 352.209 492.832 352.283 492.318 352.349C491.812 352.407 491.402 352.457 491.087 352.499C490.325 352.598 489.612 352.76 488.95 352.983C488.295 353.199 487.765 353.526 487.359 353.965C486.961 354.396 486.762 354.984 486.762 355.73C486.762 356.749 487.139 357.52 487.893 358.042C488.655 358.556 489.621 358.812 490.789 358.812ZM507.379 335.545V361H504.445V335.545H507.379ZM520.755 361.398C518.916 361.398 517.329 360.992 515.995 360.18C514.669 359.359 513.646 358.216 512.925 356.749C512.212 355.274 511.856 353.559 511.856 351.604C511.856 349.648 512.212 347.925 512.925 346.433C513.646 344.933 514.649 343.765 515.933 342.928C517.225 342.083 518.734 341.661 520.457 341.661C521.451 341.661 522.433 341.826 523.403 342.158C524.372 342.489 525.255 343.028 526.05 343.773C526.846 344.511 527.479 345.489 527.952 346.707C528.424 347.925 528.66 349.424 528.66 351.206V352.449H513.944V349.913H525.677C525.677 348.836 525.462 347.875 525.031 347.03C524.608 346.185 524.003 345.518 523.216 345.029C522.437 344.54 521.518 344.295 520.457 344.295C519.289 344.295 518.278 344.585 517.424 345.165C516.579 345.737 515.929 346.483 515.473 347.403C515.017 348.322 514.789 349.308 514.789 350.361V352.051C514.789 353.493 515.038 354.715 515.535 355.718C516.041 356.712 516.741 357.47 517.636 357.992C518.531 358.506 519.57 358.763 520.755 358.763C521.526 358.763 522.222 358.655 522.843 358.44C523.473 358.216 524.016 357.884 524.472 357.445C524.927 356.998 525.279 356.443 525.528 355.78L528.362 356.575C528.064 357.536 527.562 358.382 526.858 359.111C526.154 359.832 525.284 360.395 524.248 360.801C523.212 361.199 522.048 361.398 520.755 361.398ZM533.122 361V341.909H535.956V344.793H536.155C536.503 343.848 537.133 343.082 538.044 342.493C538.955 341.905 539.983 341.611 541.126 341.611C541.342 341.611 541.611 341.615 541.934 341.623C542.257 341.632 542.502 341.644 542.668 341.661V344.643C542.568 344.619 542.34 344.581 541.984 344.532C541.636 344.474 541.267 344.445 540.878 344.445C539.95 344.445 539.121 344.639 538.392 345.029C537.671 345.41 537.099 345.94 536.677 346.62C536.263 347.291 536.055 348.057 536.055 348.919V361H533.122Z" fill="#D9D9D9"/>
<path d="M302.938 493H295.082V467.545H303.286C305.755 467.545 307.868 468.055 309.624 469.074C311.381 470.085 312.727 471.539 313.664 473.437C314.6 475.326 315.068 477.588 315.068 480.223C315.068 482.875 314.596 485.157 313.651 487.071C312.707 488.977 311.331 490.444 309.525 491.471C307.719 492.49 305.523 493 302.938 493ZM298.165 490.266H302.739C304.843 490.266 306.587 489.86 307.971 489.048C309.355 488.236 310.387 487.08 311.066 485.58C311.746 484.08 312.085 482.295 312.085 480.223C312.085 478.168 311.75 476.399 311.078 474.916C310.407 473.424 309.405 472.281 308.071 471.485C306.737 470.682 305.075 470.28 303.087 470.28H298.165V490.266ZM325.459 493.447C324.249 493.447 323.151 493.22 322.165 492.764C321.179 492.3 320.396 491.633 319.816 490.763C319.236 489.884 318.946 488.824 318.946 487.581C318.946 486.487 319.161 485.601 319.592 484.921C320.023 484.233 320.599 483.695 321.32 483.305C322.041 482.916 322.836 482.626 323.706 482.435C324.585 482.237 325.467 482.079 326.354 481.963C327.514 481.814 328.454 481.702 329.175 481.627C329.904 481.545 330.435 481.408 330.766 481.217C331.106 481.027 331.276 480.695 331.276 480.223V480.124C331.276 478.897 330.94 477.944 330.269 477.265C329.606 476.585 328.599 476.246 327.249 476.246C325.848 476.246 324.75 476.552 323.955 477.165C323.159 477.779 322.6 478.433 322.277 479.129L319.493 478.135C319.99 476.975 320.653 476.072 321.482 475.425C322.318 474.771 323.23 474.315 324.216 474.058C325.21 473.793 326.188 473.661 327.149 473.661C327.762 473.661 328.467 473.735 329.262 473.884C330.066 474.025 330.841 474.319 331.586 474.767C332.34 475.214 332.966 475.889 333.463 476.793C333.96 477.696 334.209 478.906 334.209 480.422V493H331.276V490.415H331.126C330.928 490.829 330.596 491.272 330.132 491.745C329.668 492.217 329.051 492.619 328.28 492.95C327.51 493.282 326.569 493.447 325.459 493.447ZM325.906 490.812C327.066 490.812 328.044 490.585 328.839 490.129C329.643 489.673 330.248 489.085 330.654 488.364C331.068 487.643 331.276 486.885 331.276 486.089V483.405C331.151 483.554 330.878 483.691 330.455 483.815C330.041 483.931 329.56 484.035 329.013 484.126C328.475 484.209 327.949 484.283 327.435 484.349C326.93 484.407 326.519 484.457 326.205 484.499C325.442 484.598 324.73 484.76 324.067 484.983C323.412 485.199 322.882 485.526 322.476 485.965C322.078 486.396 321.879 486.984 321.879 487.73C321.879 488.749 322.256 489.52 323.01 490.042C323.773 490.556 324.738 490.812 325.906 490.812ZM347.865 473.909V476.395H337.972V473.909H347.865ZM340.855 469.335H343.788V487.531C343.788 488.36 343.909 488.981 344.149 489.396C344.397 489.802 344.712 490.075 345.093 490.216C345.483 490.348 345.893 490.415 346.324 490.415C346.647 490.415 346.912 490.398 347.119 490.365C347.327 490.324 347.492 490.29 347.617 490.266L348.213 492.901C348.014 492.975 347.737 493.05 347.38 493.124C347.024 493.207 346.573 493.249 346.026 493.249C345.197 493.249 344.385 493.07 343.59 492.714C342.802 492.358 342.148 491.815 341.626 491.086C341.112 490.357 340.855 489.437 340.855 488.327V469.335ZM360.077 493.398C358.237 493.398 356.65 492.992 355.316 492.18C353.991 491.359 352.967 490.216 352.246 488.749C351.534 487.274 351.177 485.559 351.177 483.604C351.177 481.648 351.534 479.925 352.246 478.433C352.967 476.933 353.97 475.765 355.254 474.928C356.547 474.083 358.055 473.661 359.778 473.661C360.773 473.661 361.755 473.826 362.724 474.158C363.693 474.489 364.576 475.028 365.371 475.773C366.167 476.511 366.801 477.489 367.273 478.707C367.745 479.925 367.981 481.424 367.981 483.206V484.449H353.266V481.913H364.998C364.998 480.836 364.783 479.875 364.352 479.03C363.93 478.185 363.325 477.518 362.538 477.029C361.759 476.54 360.839 476.295 359.778 476.295C358.61 476.295 357.599 476.585 356.746 477.165C355.9 477.737 355.25 478.483 354.794 479.403C354.339 480.322 354.111 481.308 354.111 482.361V484.051C354.111 485.493 354.359 486.715 354.856 487.718C355.362 488.712 356.062 489.47 356.957 489.992C357.852 490.506 358.892 490.763 360.077 490.763C360.847 490.763 361.543 490.655 362.165 490.44C362.794 490.216 363.337 489.884 363.793 489.445C364.249 488.998 364.601 488.443 364.849 487.78L367.683 488.575C367.385 489.536 366.884 490.382 366.179 491.111C365.475 491.832 364.605 492.395 363.569 492.801C362.533 493.199 361.369 493.398 360.077 493.398ZM389.496 493.348C387.822 493.348 386.38 493.041 385.171 492.428C383.961 491.815 383.029 490.974 382.374 489.905C381.72 488.836 381.392 487.614 381.392 486.239C381.392 485.178 381.616 484.238 382.063 483.417C382.519 482.589 383.145 481.822 383.94 481.118C384.744 480.405 385.668 479.693 386.712 478.98L390.391 476.246C391.112 475.773 391.688 475.268 392.119 474.729C392.558 474.191 392.777 473.487 392.777 472.616C392.777 471.97 392.491 471.345 391.92 470.74C391.356 470.135 390.615 469.832 389.695 469.832C389.049 469.832 388.477 469.998 387.98 470.33C387.491 470.653 387.105 471.067 386.824 471.572C386.55 472.07 386.414 472.583 386.414 473.114C386.414 473.71 386.575 474.315 386.898 474.928C387.23 475.533 387.648 476.155 388.154 476.793C388.667 477.422 389.198 478.069 389.745 478.732L401.428 493H397.898L388.253 481.366C387.358 480.289 386.546 479.312 385.817 478.433C385.088 477.555 384.508 476.689 384.077 475.836C383.646 474.982 383.431 474.058 383.431 473.064C383.431 471.92 383.683 470.918 384.189 470.056C384.703 469.186 385.419 468.511 386.339 468.03C387.267 467.541 388.353 467.297 389.595 467.297C390.871 467.297 391.969 467.545 392.889 468.043C393.809 468.531 394.517 469.182 395.014 469.994C395.512 470.798 395.76 471.672 395.76 472.616C395.76 473.835 395.458 474.891 394.853 475.786C394.248 476.681 393.424 477.513 392.38 478.284L387.309 482.062C386.165 482.908 385.39 483.728 384.984 484.523C384.578 485.319 384.375 485.891 384.375 486.239C384.375 487.034 384.582 487.776 384.997 488.463C385.411 489.151 385.995 489.706 386.749 490.129C387.503 490.551 388.386 490.763 389.397 490.763C390.358 490.763 391.294 490.56 392.206 490.154C393.117 489.739 393.941 489.143 394.679 488.364C395.425 487.585 396.013 486.649 396.444 485.555C396.883 484.461 397.103 483.231 397.103 481.864H399.936C399.936 483.554 399.742 484.934 399.352 486.002C398.963 487.071 398.524 487.908 398.035 488.513C397.546 489.118 397.152 489.57 396.854 489.868C396.755 489.992 396.663 490.116 396.581 490.241C396.498 490.365 396.407 490.489 396.307 490.614C395.487 491.533 394.451 492.221 393.2 492.677C391.949 493.124 390.714 493.348 389.496 493.348ZM413.524 470.28V467.545H432.615V470.28H424.611V493H421.529V470.28H413.524ZM436.975 493V473.909H439.908V493H436.975ZM438.466 470.727C437.894 470.727 437.401 470.533 436.987 470.143C436.581 469.754 436.378 469.286 436.378 468.739C436.378 468.192 436.581 467.724 436.987 467.334C437.401 466.945 437.894 466.75 438.466 466.75C439.038 466.75 439.527 466.945 439.933 467.334C440.347 467.724 440.554 468.192 440.554 468.739C440.554 469.286 440.347 469.754 439.933 470.143C439.527 470.533 439.038 470.727 438.466 470.727ZM445.28 493V473.909H448.114V476.892H448.363C448.76 475.873 449.403 475.082 450.289 474.518C451.176 473.946 452.241 473.661 453.483 473.661C454.743 473.661 455.791 473.946 456.628 474.518C457.473 475.082 458.132 475.873 458.604 476.892H458.803C459.292 475.906 460.025 475.123 461.003 474.543C461.981 473.955 463.153 473.661 464.52 473.661C466.227 473.661 467.624 474.195 468.709 475.264C469.794 476.324 470.337 477.978 470.337 480.223V493H467.404V480.223C467.404 478.814 467.019 477.808 466.248 477.203C465.477 476.598 464.57 476.295 463.526 476.295C462.184 476.295 461.144 476.701 460.406 477.513C459.669 478.317 459.3 479.336 459.3 480.571V493H456.317V479.925C456.317 478.839 455.965 477.965 455.261 477.302C454.557 476.631 453.649 476.295 452.539 476.295C451.777 476.295 451.064 476.498 450.401 476.904C449.747 477.31 449.216 477.874 448.81 478.595C448.412 479.307 448.214 480.132 448.214 481.068V493H445.28ZM483.705 493.398C481.865 493.398 480.278 492.992 478.944 492.18C477.618 491.359 476.595 490.216 475.874 488.749C475.162 487.274 474.805 485.559 474.805 483.604C474.805 481.648 475.162 479.925 475.874 478.433C476.595 476.933 477.598 475.765 478.882 474.928C480.175 474.083 481.683 473.661 483.406 473.661C484.401 473.661 485.382 473.826 486.352 474.158C487.321 474.489 488.204 475.028 488.999 475.773C489.795 476.511 490.429 477.489 490.901 478.707C491.373 479.925 491.609 481.424 491.609 483.206V484.449H476.893V481.913H488.626C488.626 480.836 488.411 479.875 487.98 479.03C487.558 478.185 486.953 477.518 486.165 477.029C485.387 476.54 484.467 476.295 483.406 476.295C482.238 476.295 481.227 476.585 480.374 477.165C479.528 477.737 478.878 478.483 478.422 479.403C477.967 480.322 477.739 481.308 477.739 482.361V484.051C477.739 485.493 477.987 486.715 478.484 487.718C478.99 488.712 479.69 489.47 480.585 489.992C481.48 490.506 482.52 490.763 483.705 490.763C484.475 490.763 485.171 490.655 485.793 490.44C486.422 490.216 486.965 489.884 487.421 489.445C487.877 488.998 488.229 488.443 488.477 487.78L491.311 488.575C491.013 489.536 490.511 490.382 489.807 491.111C489.103 491.832 488.233 492.395 487.197 492.801C486.161 493.199 484.997 493.398 483.705 493.398Z" fill="#D9D9D9"/>
</svg>
